<?xml version="1.0" encoding="utf-8"?>
<!-- Generator: Adobe Illustrator 24.0.2, SVG Export Plug-In . SVG Version: 6.00 Build 0)  -->
<svg version="1.1" id="Layer_1" xmlns="http://www.w3.org/2000/svg" xmlns:xlink="http://www.w3.org/1999/xlink" x="0px" y="0px"
	 viewBox="0 0 584 110" style="enable-background:new 0 0 584 110;" xml:space="preserve">
<style type="text/css">
	.st0{display:none;fill:#3D95CE;}
	.st1{fill:#3D95CE;}
	.st2{display:none;}
	.st3{display:none;opacity:0.37;}
	.st4{display:inline;fill:#3D95CE;}
</style>
<g>
	<path class="st0" d="M101.1,0c3.9,6.4,5.7,13.1,5.7,21.4c0,26.7-22.8,61.4-41.3,85.7H23.2L6.3,5.8l37-3.5l9,72.1
		C60.6,60.7,71,39.3,71,24.7c0-8-1.4-13.4-3.5-17.9L101.1,0z"/>
	<path class="st1" d="M149.1,44.6c6.8,0,23.9-3.1,23.9-12.9c0-4.7-3.3-7-7.2-7C159,24.7,150,32.9,149.1,44.6z M148.3,63.9
		c0,11.9,6.6,16.6,15.4,16.6c9.5,0,18.7-2.3,30.6-8.4l-4.5,30.4c-8.4,4.1-21.4,6.8-34.1,6.8c-32.1,0-43.6-19.5-43.6-43.8
		c0-31.6,18.7-65.1,57.3-65.1c21.2,0,33.1,11.9,33.1,28.5C202.4,55.5,168.2,63.7,148.3,63.9z"/>
	<path class="st1" d="M309.2,23.7c0,3.9-0.6,9.5-1.2,13.2l-11.1,70.1h-36L271,42.8c0.2-1.7,0.8-5.3,0.8-7.2c0-4.7-2.9-5.8-6.4-5.8
		c-4.7,0-9.3,2.1-12.5,3.7l-11.5,73.6h-36.2l16.5-105h31.4l0.4,8.4c7.4-4.9,17.1-10.1,31-10.1C302.7,0.3,309.2,9.7,309.2,23.7z"/>
	<path class="st1" d="M416.1,11.8c10.3-7.4,20.1-11.5,33.5-11.5c18.5,0,24.9,9.4,24.9,23.4c0,3.9-0.6,9.5-1.2,13.2l-11.1,70.1h-36
		l10.3-65.7c0.2-1.8,0.6-3.9,0.6-5.3c0-5.3-2.9-6.4-6.4-6.4c-4.5,0-8.9,1.9-12.3,3.7l-11.5,73.6h-36l10.3-65.7
		c0.2-1.8,0.6-3.9,0.6-5.3c0-5.3-2.9-6.4-6.4-6.4c-4.7,0-9.3,2.1-12.5,3.7l-11.5,73.6h-36.2l16.5-105h31l1,8.8
		c7.2-5.3,16.9-10.5,30-10.5C405,0.3,412.4,5.2,416.1,11.8z"/>
	<path class="st1" d="M546.2,42.4c0-8.6-2.1-14.4-8.6-14.4c-14.2,0-17.1,25.1-17.1,38c0,9.8,2.7,15.8,9.1,15.8
		C543.1,81.8,546.2,55.3,546.2,42.4z M483.9,64.5c0-33.1,17.5-64.1,57.8-64.1c30.4,0,41.5,17.9,41.5,42.7
		c0,32.7-17.3,66.6-58.6,66.6C494,109.7,483.9,89.6,483.9,64.5z"/>
</g>
<g>
	<path class="st1" d="M53,84.6c0,0,9.5-0.9,19.1-0.9s28,0,28,0l-3.6,23.4l-95.7,0L2,99.6c0,0,41.4-49.3,49.1-58.7
		s15.4-16.1,15.4-16.1s-7.4,0.6-19.7,0.6s-27.7,0-27.7,0l3.7-23.3H117l-1.5,8.7c0,0-40.4,49-47.9,58S53,84.6,53,84.6z"/>
</g>
<g class="st2">
	<path class="st1" d="M-85.8,191c3.9,6.4,5.7,13.1,5.7,21.4c0,26.7-22.8,61.4-41.3,85.7h-42.2l-16.9-101.3l37-3.5l9,72.1
		c8.4-13.6,18.7-35.1,18.7-49.7c0-8-1.4-13.4-3.5-17.9L-85.8,191z"/>
	<path class="st1" d="M-37.8,235.6c6.8,0,23.9-3.1,23.9-12.9c0-4.7-3.3-7-7.2-7C-27.9,215.8-36.9,224-37.8,235.6z M-38.6,254.9
		c0,11.9,6.6,16.6,15.4,16.6c9.5,0,18.7-2.3,30.6-8.4l-4.5,30.4c-8.4,4.1-21.4,6.8-34.1,6.8c-32.1,0-43.6-19.5-43.6-43.8
		c0-31.6,18.7-65.1,57.3-65.1c21.2,0,33.1,11.9,33.1,28.5C15.5,246.6-18.7,254.7-38.6,254.9z"/>
	<path class="st1" d="M112.3,23.7c0,3.9-0.6,9.5-1.2,13.2l-11.1,70.1H64l10.1-64.3c0.2-1.7,0.8-5.3,0.8-7.2c0-4.7-2.9-5.8-6.4-5.8
		c-4.7,0-9.3,2.1-12.5,3.7l-11.5,73.6H8.4l16.5-105h31.4l0.4,8.4C64,5.6,73.8,0.3,87.6,0.3C105.9,0.3,112.3,9.7,112.3,23.7z"/>
	<path class="st1" d="M229.2,202.9c10.3-7.4,20.1-11.5,33.5-11.5c18.5,0,24.9,9.4,24.9,23.4c0,3.9-0.6,9.5-1.2,13.2l-11.1,70.1h-36
		l10.3-65.7c0.2-1.8,0.6-3.9,0.6-5.3c0-5.3-2.9-6.4-6.4-6.4c-4.5,0-8.9,1.9-12.3,3.7L220,298.2h-36l10.3-65.7
		c0.2-1.8,0.6-3.9,0.6-5.3c0-5.3-2.9-6.4-6.4-6.4c-4.7,0-9.3,2.1-12.5,3.7l-11.5,73.6h-36.2l16.5-105h31l1,8.8
		c7.2-5.3,16.9-10.5,30-10.5C218.1,191.4,225.5,196.3,229.2,202.9z"/>
	<path class="st1" d="M359.3,233.5c0-8.6-2.1-14.4-8.6-14.4c-14.2,0-17.1,25.1-17.1,38c0,9.8,2.7,15.8,9.1,15.8
		C356.2,272.9,359.3,246.4,359.3,233.5z M297,255.5c0-33.1,17.5-64.1,57.8-64.1c30.4,0,41.5,17.9,41.5,42.7
		c0,32.7-17.3,66.6-58.6,66.6C307.1,300.7,297,280.7,297,255.5z"/>
</g>
<g class="st3">
	<path class="st4" d="M19.2,25.2c0,0,9.5-0.9,19.1-0.9s28,0,28,0l-3.6,23.4l-95.7,0l1.2-7.5c0,0,41.4-49.3,49.1-58.7
		s15.4-16.1,15.4-16.1S25.4-34,13.1-34s-26.7,0-26.7,0l3.7-23.3h93.1l-1.5,8.7c0,0-40.4,49-47.9,58S19.2,25.2,19.2,25.2z"/>
</g>
</svg>
